<svg xmlns="http://www.w3.org/2000/svg" width="21.267" height="17" viewBox="0 0 21.267 17">
  <g id="Group_54136" data-name="Group 54136" transform="translate(-938 -60)">
    <g id="_5978964_eye_look_show_view_icon" data-name="5978964_eye_look_show_view_icon" transform="translate(936.634 56.5)">
      <path id="Path_1112" data-name="Path 1112" d="M12,20.5c-4.3,0-8.241-3.023-10.544-8.086a1,1,0,0,1,0-.828C3.759,6.523,7.7,3.5,12,3.5s8.241,3.023,10.544,8.086a1,1,0,0,1,0,.828,18.14,18.14,0,0,1-1.392,2.521,1,1,0,1,1-1.666-1.106A15.87,15.87,0,0,0,20.529,12C18.543,7.92,15.38,5.5,12,5.5S5.457,7.92,3.471,12C5.457,16.08,8.62,18.5,12,18.5a7.964,7.964,0,0,0,5.036-1.919A1,1,0,1,1,18.3,18.13,9.939,9.939,0,0,1,12,20.5Z" fill="#faa634"/>
      <path id="Path_1113" data-name="Path 1113" d="M12,16a4,4,0,0,1-3.929-4.756,1,1,0,0,1,1.965.375A2,2,0,1,0,14,12a2.034,2.034,0,0,0-2.053-2A1.039,1.039,0,0,1,10.9,9.054.963.963,0,0,1,11.806,8L12,8a4,4,0,0,1,0,8Z" fill="#faa634"/>
      <path id="Path_1114" data-name="Path 1114" d="M12,16a4,4,0,0,1-3.929-4.756,1,1,0,0,1,1.17-.795c.543.1,1.711-.856,1.663-1.4A.963.963,0,0,1,11.806,8L12,8a4,4,0,0,1,0,8Z" transform="translate(5.369 27.621) rotate(-112)" fill="#faa634"/>
      <path id="Path_1115" data-name="Path 1115" d="M12,20.5c4.3,0,8.241-3.023,10.544-8.086a1,1,0,0,0,0-.828C20.241,6.523,16.3,3.5,12,3.5S3.759,6.523,1.456,11.586a1,1,0,0,0,0,.828,18.14,18.14,0,0,0,1.392,2.521,1,1,0,1,0,1.666-1.106A15.87,15.87,0,0,1,3.471,12C5.457,7.92,8.62,5.5,12,5.5s6.543,2.42,8.529,6.5C18.543,16.08,15.38,18.5,12,18.5a7.964,7.964,0,0,1-5.036-1.919A1,1,0,1,0,5.7,18.13,9.939,9.939,0,0,0,12,20.5Z" transform="translate(0)" fill="#faa634"/>
    </g>
  </g>
</svg>
