<svg xmlns="http://www.w3.org/2000/svg" width="21.267" height="8" viewBox="0 0 21.267 8">
  <g id="Group_54138" data-name="Group 54138" transform="translate(-938 -66)">
    <g id="_5978961_closed_eye_hide_sleep_icon" data-name="5978961_closed_eye_hide_sleep_icon" transform="translate(936.634 56)">
      <path id="Path_1106" data-name="Path 1106" d="M12,15c-4.132,0-7.98-1.214-10.294-3.249a1,1,0,0,1,1.32-1.5C4.986,11.972,8.34,13,12,13s7.014-1.028,8.974-2.751a1,1,0,1,1,1.32,1.5C19.98,13.786,16.132,15,12,15Z" fill="#faa634"/>
      <path id="Path_1107" data-name="Path 1107" d="M12,18a1,1,0,0,1-1-1V14a1,1,0,0,1,2,0v3A1,1,0,0,1,12,18Z" fill="#faa634"/>
      <path id="Path_1108" data-name="Path 1108" d="M7.749,17.667a.964.964,0,0,1-.17-.015A1,1,0,0,1,6.762,16.5l.5-2.935a1,1,0,1,1,1.971.339l-.5,2.935A1,1,0,0,1,7.749,17.667Z" fill="#faa634"/>
      <path id="Path_1109" data-name="Path 1109" d="M3.636,16.306a1,1,0,0,1-.942-1.336l.979-2.745a1,1,0,1,1,1.884.672l-.979,2.745A1,1,0,0,1,3.636,16.306Z" fill="#faa634"/>
      <path id="Path_1110" data-name="Path 1110" d="M16.251,17.667a1,1,0,0,1-.984-.831l-.5-2.935a1,1,0,1,1,1.971-.339l.5,2.935a1,1,0,0,1-.816,1.155.964.964,0,0,1-.17.015Z" fill="#faa634"/>
      <path id="Path_1111" data-name="Path 1111" d="M20.364,16.306a1,1,0,0,1-.942-.665L18.444,12.9a1,1,0,1,1,1.884-.672l.979,2.745a1,1,0,0,1-.942,1.336Z" fill="#faa634"/>
    </g>
  </g>
</svg>
